<svg xmlns="http://www.w3.org/2000/svg" xmlns:xlink="http://www.w3.org/1999/xlink" width="2000" zoomAndPan="magnify" viewBox="0 0 1500 1499.999933" height="2000" preserveAspectRatio="xMidYMid meet" version="1.0"><defs><clipPath id="938c9ae81e"><path d="M 12.792969 0 L 1487.207031 0 L 1487.207031 1474.414062 L 12.792969 1474.414062 Z M 12.792969 0 " clip-rule="nonzero"/></clipPath><clipPath id="1140367cc7"><path d="M 750 0 C 342.851562 0 12.792969 330.058594 12.792969 737.207031 C 12.792969 1144.355469 342.851562 1474.414062 750 1474.414062 C 1157.148438 1474.414062 1487.207031 1144.355469 1487.207031 737.207031 C 1487.207031 330.058594 1157.148438 0 750 0 Z M 750 0 " clip-rule="nonzero"/></clipPath><clipPath id="699e1a7976"><path d="M 12.792969 0 L 1487.199219 0 L 1487.199219 1474.40625 L 12.792969 1474.40625 Z M 12.792969 0 " clip-rule="nonzero"/></clipPath><clipPath id="68287588d5"><path d="M 749.996094 0 C 342.851562 0 12.792969 330.058594 12.792969 737.203125 C 12.792969 1144.347656 342.851562 1474.40625 749.996094 1474.40625 C 1157.140625 1474.40625 1487.199219 1144.347656 1487.199219 737.203125 C 1487.199219 330.058594 1157.140625 0 749.996094 0 Z M 749.996094 0 " clip-rule="nonzero"/></clipPath><clipPath id="0c5c850fe8"><path d="M 195.152344 195.152344 L 1304.714844 195.152344 L 1304.714844 1304.714844 L 195.152344 1304.714844 Z M 195.152344 195.152344 " clip-rule="nonzero"/></clipPath><clipPath id="14a1eaf866"><path d="M 749.933594 195.152344 C 443.535156 195.152344 195.152344 443.535156 195.152344 749.933594 C 195.152344 1056.328125 443.535156 1304.714844 749.933594 1304.714844 C 1056.328125 1304.714844 1304.714844 1056.328125 1304.714844 749.933594 C 1304.714844 443.535156 1056.328125 195.152344 749.933594 195.152344 Z M 749.933594 195.152344 " clip-rule="nonzero"/></clipPath><clipPath id="5100c19b04"><path d="M 887.039062 617 L 1048 617 L 1048 747.597656 L 887.039062 747.597656 Z M 887.039062 617 " clip-rule="nonzero"/></clipPath><clipPath id="ec02d10a31"><path d="M 940.941406 549.1875 L 1053.640625 626.816406 L 962.378906 759.3125 L 849.679688 681.6875 Z M 940.941406 549.1875 " clip-rule="nonzero"/></clipPath><clipPath id="e4ce212376"><path d="M 940.941406 549.1875 L 1053.640625 626.816406 L 962.378906 759.3125 L 849.679688 681.6875 Z M 940.941406 549.1875 " clip-rule="nonzero"/></clipPath><clipPath id="ded9917db7"><path d="M 940.941406 549.1875 L 1053.640625 626.816406 L 962.378906 759.3125 L 849.679688 681.6875 Z M 940.941406 549.1875 " clip-rule="nonzero"/></clipPath></defs><g clip-path="url(#938c9ae81e)"><g clip-path="url(#1140367cc7)"><path fill="#021934" d="M 12.792969 0 L 1487.207031 0 L 1487.207031 1474.414062 L 12.792969 1474.414062 Z M 12.792969 0 " fill-opacity="1" fill-rule="nonzero"/></g></g><g clip-path="url(#699e1a7976)"><g clip-path="url(#68287588d5)"><path stroke-linecap="butt" transform="matrix(0.75, 0, 0, 0.75, 12.792955, -0.00002)" fill="none" stroke-linejoin="miter" d="M 982.93754 0.0000266667 C 440.078153 0.0000266667 0.0000185892 440.078161 0.0000185892 982.937548 C 0.0000185892 1525.796935 440.078153 1965.87507 982.93754 1965.87507 C 1525.796927 1965.87507 1965.875062 1525.796935 1965.875062 982.937548 C 1965.875062 440.078161 1525.796927 0.0000266667 982.93754 0.0000266667 Z M 982.93754 0.0000266667 " stroke="#556e9a" stroke-width="20" stroke-opacity="1" stroke-miterlimit="4"/></g></g><g clip-path="url(#0c5c850fe8)"><g clip-path="url(#14a1eaf866)"><path fill="#ffffff" d="M 195.152344 195.152344 L 1304.714844 195.152344 L 1304.714844 1304.714844 L 195.152344 1304.714844 Z M 195.152344 195.152344 " fill-opacity="1" fill-rule="nonzero"/></g></g><path fill="#f59e0b" d="M 732.996094 880.320312 L 732.996094 956.125 L 416.941406 956.125 L 416.941406 547.941406 L 725.414062 547.941406 L 725.414062 623.75 L 510.824219 623.75 L 510.824219 712.386719 L 700.339844 712.386719 L 700.339844 785.855469 L 510.824219 785.855469 L 510.824219 880.320312 Z M 732.996094 880.320312 " fill-opacity="1" fill-rule="nonzero"/><path fill="#000000" d="M 866.550781 698.972656 C 876.269531 681.089844 890.65625 667.484375 909.699219 658.160156 C 928.753906 648.828125 951.882812 644.160156 979.09375 644.160156 L 979.09375 698.386719 C 975.980469 697.996094 971.707031 697.804688 966.261719 697.804688 C 935.9375 697.804688 912.125 706.84375 894.828125 724.921875 C 877.535156 743.003906 868.886719 768.757812 868.886719 802.1875 L 868.886719 956.125 L 812.910156 956.125 L 812.910156 647.070312 L 866.550781 647.070312 Z M 866.550781 698.972656 " fill-opacity="1" fill-rule="nonzero"/><path fill="#f59e0b" d="M 1065.386719 959.621094 C 1054.503906 959.621094 1045.175781 955.832031 1037.402344 948.25 C 1029.628906 940.675781 1025.742188 931.054688 1025.742188 919.390625 C 1025.742188 908.121094 1029.628906 898.695312 1037.402344 891.117188 C 1045.175781 883.53125 1054.503906 879.734375 1065.386719 879.734375 C 1076.273438 879.734375 1085.414062 883.433594 1092.796875 890.824219 C 1100.179688 898.210938 1103.875 907.730469 1103.875 919.390625 C 1103.875 931.054688 1100.082031 940.675781 1092.503906 948.25 C 1084.925781 955.832031 1075.886719 959.621094 1065.386719 959.621094 Z M 1065.386719 959.621094 " fill-opacity="1" fill-rule="nonzero"/><g clip-path="url(#5100c19b04)"><g clip-path="url(#ec02d10a31)"><g clip-path="url(#e4ce212376)"><g clip-path="url(#ded9917db7)"><path fill="#000000" d="M 1046.535156 625.011719 C 1044.332031 620.300781 1039.847656 617.421875 1034.824219 617.492188 L 898.847656 620.316406 C 893.992188 620.476562 889.875 623.601562 888.347656 628.277344 C 886.761719 633.148438 888.410156 638.511719 892.402344 641.589844 L 937.691406 677.019531 C 937.574219 687.136719 937.042969 717.222656 936.609375 734.589844 C 936.476562 738.90625 938.523438 742.886719 941.882812 745.199219 C 942.636719 745.71875 943.453125 746.152344 944.332031 746.492188 C 948.867188 748.234375 953.871094 746.953125 957.085938 743.191406 C 976.050781 720.816406 1024.847656 662.765625 1044.871094 638.808594 C 1048.046875 635.058594 1048.699219 629.640625 1046.535156 625.011719 Z M 937.863281 677.160156 C 937.863281 677.15625 937.859375 677.152344 937.859375 677.148438 L 937.867188 677.15625 Z M 937.863281 677.160156 " fill-opacity="1" fill-rule="nonzero"/></g></g></g></g></svg>